<?xml version="1.0" encoding="iso-8859-1"?>
<!-- Generator: Adobe Illustrator 19.0.0, SVG Export Plug-In . SVG Version: 6.00 Build 0)  -->
<svg version="1.1" id="Capa_1" xmlns="http://www.w3.org/2000/svg" xmlns:xlink="http://www.w3.org/1999/xlink" x="0px" y="0px"
	 viewBox="0 0 522.462 522.462" style="enable-background:new 0 0 522.462 522.462;" xml:space="preserve">
<g>
	<g>
		<path d="M500.692,119.731v380.962H119.731v21.769h402.731V119.731H500.692z M478.923,54.423h-21.769v402.731H54.423v21.769h424.5
			V54.423z M153.93,222.982c1.807-3.026,4.985-4.985,8.49-5.246c3.57-0.218,6.966,1.176,9.23,3.875l45.062,54.118l79.001-118.49
			c2.264-3.374,6.204-5.268,10.297-4.767c4.093,0.479,7.532,3.178,8.969,6.966l62.652,167.101h57.754V0H0v326.538h91.801
			C91.801,326.538,153.93,222.982,153.93,222.982z M130.615,65.308c24.011,0,43.538,19.549,43.538,43.538
			c0,24.033-19.527,43.538-43.538,43.538s-43.538-19.505-43.538-43.538C87.077,84.856,106.604,65.308,130.615,65.308z
			 M435.385,348.308H0v87.077h435.385V348.308z"/>
	</g>
</g>
<g>
</g>
<g>
</g>
<g>
</g>
<g>
</g>
<g>
</g>
<g>
</g>
<g>
</g>
<g>
</g>
<g>
</g>
<g>
</g>
<g>
</g>
<g>
</g>
<g>
</g>
<g>
</g>
<g>
</g>
</svg>
