<?xml version="1.0" encoding="iso-8859-1"?>
<!-- Generator: Adobe Illustrator 16.0.0, SVG Export Plug-In . SVG Version: 6.00 Build 0)  -->
<!DOCTYPE svg PUBLIC "-//W3C//DTD SVG 1.1//EN" "http://www.w3.org/Graphics/SVG/1.1/DTD/svg11.dtd">
<svg version="1.1" id="Capa_1" xmlns="http://www.w3.org/2000/svg" xmlns:xlink="http://www.w3.org/1999/xlink" x="0px" y="0px"
	 width="189.627px" height="189.627px" viewBox="0 0 189.627 189.627" style="enable-background:new 0 0 189.627 189.627;"
	 xml:space="preserve">
<g>
	<path d="M47.248,149.467c-2.364-3.025-5.23-5.575-8.175-8.022c-1.117-1.435-2.196-2.896-3.223-4.364
		c-0.467-0.667-0.942-1.457-1.429-2.283c0.534-0.11,1.089-0.173,1.614-0.3c3.975-0.965,3.748-5.748,1.023-7.825
		c-6.846-5.222-11.132-13.187-17.815-18.65c-2.258-1.846-5.385-1.198-6.361,1.679c-2.389,7.045-4.318,14.237-6.694,21.288
		c-0.731,2.168,1.837,3.781,3.573,3.097c0.992,0.679,2.124,1.09,3.316,1.363c-3.677,6.9-8.244,13.184-12.423,20.038
		c-1.88,3.084,0.546,7.173,4.105,7.153c5.756-0.032,11.505-0.29,17.253-0.563c0.088,1.587,0.126,3.182,0.166,4.777
		c-0.129,0.768-0.233,1.529-0.149,2.221c0.126,1.046,0.301,2.081,0.457,3.12c0.094,0.859,0.21,1.715,0.376,2.567
		c0.913,5.531,9.142,3.125,8.345-2.302c-0.526-3.579-0.398-7.18-0.438-10.772c3.995-0.169,7.99-0.312,11.99-0.337
		c3.399-0.022,5.041-3.015,4.499-5.717C48.449,153.931,48.702,151.327,47.248,149.467z"/>
	<path d="M97.084,112.744c-1.289-5.634-4.888-10.764-10.149-12.592c-7.347-2.553-14.773-1.438-19.414,3.689
		c-3.172,2.277-4.711,6.114-4.383,9.974c0.005,0.062,0.024,0.121,0.03,0.182c-0.879,7.212,1.696,15.163,6.448,20.372
		c2.474,2.711,6.093,4.34,9.76,4.422c0.209,1.427,0.561,2.835,0.703,4.28c0.264,2.696,0.305,5.433,0.407,8.14
		c-0.286,5.055,8.188,5.935,8.407,0.122c0.146-3.881,0.628-9.004-0.493-13.169c4.01-0.772,7.452-3.591,9.2-8.557
		C99.429,124.409,99.437,117.881,97.084,112.744z"/>
	<path d="M179.476,156.14c-6.538-6.586-12.466-13.513-18.481-20.558c2.957-0.038,5.915-0.062,8.872-0.139
		c3.112-0.082,4.342-3.078,3.25-5.664c-4.998-11.838-12.282-24.641-23.875-31.063c-1.807-1.001-4.288-0.141-4.808,1.954
		c-2.553,10.312-5.802,20.458-9.531,30.401c-0.668,1.782,1.305,3.141,2.837,2.817c0.622,1.07,1.682,1.878,3.299,1.868
		c1.593-0.012,3.186-0.021,4.779-0.029c-3.684,9.241-8.028,18.219-11.374,27.616c-0.908,2.554,1.443,5.222,3.975,5.217
		c5.161-0.011,10.287-0.425,15.387-1.067c-0.032,0.546,0.022,1.104,0.118,1.707c0.018,0.114,0.081,0.196,0.108,0.304
		c0.569,2.171,0.943,4.51,1.072,6.729c0.32,5.472,8.763,5.543,8.562,0c0.035-2.439,0.136-7.239-1.299-10.013
		c5.084-0.858,10.148-1.859,15.202-2.853C180.839,162.725,181.634,158.313,179.476,156.14z"/>
	<path d="M189.189,91.574c-11.959-26.322-26.702-63.262-52.55-78.895c-9.563-5.785-17.802-4.232-23.904,4.754
		c-7.483,11.02-14.384,24.387-20.059,37.77c-7.624-17.347-24.001-53.168-40.5-41.383c-10.032,7.167-14.039,23.087-17.551,34.118
		c-4.305,13.525-6.223,27.527-9.588,41.258c-0.647,2.642,3.045,3.544,3.99,1.1c5.884-15.219,9.493-31.294,15.16-46.583
		c3.371,7.476,11.598,9.296,16.831,2.959c1.816,2.397,4.321,4.233,7.454,4.294c4.403,0.086,7.921-2.398,9.627-6.047
		c3.205,6.812,6.274,13.991,10.813,19.664c-1.628,4.27-3.147,8.501-4.462,12.582c-1.021,3.171,3.975,5.34,5.419,2.284
		c4.861-10.286,10.568-20.045,16.092-29.931c2.709,10.633,17.406,14.688,22.44,5.119c4.499,3.905,10.013,4.15,14.257-0.666
		c4.959,4.861,11.257,5.693,16.962-0.739c7.829,13.988,14.2,28.958,22.368,42.55C184.812,100.479,191.374,96.379,189.189,91.574z
		 M75.19,39.625c-1.617,1.869-2.737,4.616-5.13,5.576c-3.323,1.334-5.609-2.983-6.624-5.302c-1.023-2.335-4.261-1.314-4.938,0.646
		c-3.295,9.529-9.487,5.483-12.65-0.999c1.544-3.841,3.194-7.641,5.127-11.334c2.025-3.869,5.941-12.046,11.603-7.505
		c5.101,4.09,8.468,10.986,11.644,16.566c0.404,0.71,0.786,1.454,1.174,2.19C75.329,39.52,75.25,39.556,75.19,39.625z
		 M145.471,45.989c-1.342-2.076-5.046-2.619-6.247,0c-2.375,5.177-7.353,3.146-9.596-1.241c-1.596-3.121-6.545-1.614-6.485,1.756
		c0.251,14.076-15.085,6.193-12.993-4.69c0.64-1.193,1.307-2.368,1.932-3.57c2.817-5.424,5.494-10.912,8.302-16.342
		c5.996-11.598,20.686,5.22,23.913,8.915c4.619,5.288,8.561,11.05,12.177,17.037C151.294,50.145,149.283,51.885,145.471,45.989z"/>
</g>
<g>
</g>
<g>
</g>
<g>
</g>
<g>
</g>
<g>
</g>
<g>
</g>
<g>
</g>
<g>
</g>
<g>
</g>
<g>
</g>
<g>
</g>
<g>
</g>
<g>
</g>
<g>
</g>
<g>
</g>
</svg>
